<?xml version="1.0" encoding="utf-8"?>
<!-- Generator: Adobe Illustrator 22.0.1, SVG Export Plug-In . SVG Version: 6.00 Build 0)  -->
<svg version="1.1" id="レイヤー_1" xmlns="http://www.w3.org/2000/svg" xmlns:xlink="http://www.w3.org/1999/xlink" x="0px"
	 y="0px" viewBox="0 0 1024 1024" style="enable-background:new 0 0 1024 1024;" xml:space="preserve">
<style type="text/css">
	.st0{fill:#231815;}
</style>
<path class="st0" d="M1024,808.7c0,13.1-2.4,30.2-7.3,51.3c-4.8,21.1-9.9,37.7-15.3,49.8c-10.2,24.2-39.8,49.9-88.7,77.1
	c-45.6,24.7-90.7,37.1-135.3,37.1c-13.1,0-25.8-0.8-38.2-2.5c-12.4-1.7-26.3-4.7-41.8-9.1c-15.5-4.4-27-7.9-34.5-10.5
	c-7.5-2.7-21-7.6-40.4-14.9c-19.4-7.3-31.3-11.6-35.6-13.1c-47.5-17-89.9-37.1-127.3-60.4c-62.1-38.3-126.2-90.5-192.4-156.7
	S148.8,626.4,110.5,564.4C87.3,527,67.2,484.6,50.2,437.1c-1.5-4.4-5.8-16.2-13.1-35.6c-7.3-19.4-12.2-32.8-14.9-40.4
	c-2.7-7.5-6.2-19-10.5-34.5c-4.4-15.5-7.4-29.5-9.1-41.8C0.8,272.4,0,259.6,0,246.5c0-44.6,12.4-89.7,37.1-135.3
	c27.2-49,52.9-78.5,77.1-88.7c12.1-5.3,28.7-10.4,49.8-15.3C185.1,2.4,202.2,0,215.3,0c6.8,0,11.9,0.7,15.3,2.2
	c8.7,2.9,21.6,21.3,38.5,55.3c5.3,9.2,12.6,22.3,21.8,39.3c9.2,17,17.7,32.4,25.5,46.2c7.8,13.8,15.3,26.8,22.5,38.9
	c1.5,1.9,5.7,8,12.7,18.2c7,10.2,12.2,18.8,15.6,25.8c3.4,7,5.1,13.9,5.1,20.7c0,9.7-6.9,21.8-20.7,36.4
	c-13.8,14.5-28.8,27.9-45.1,40c-16.2,12.1-31.3,25-45.1,38.5c-13.8,13.6-20.7,24.7-20.7,33.5c0,4.4,1.2,9.8,3.6,16.4
	c2.4,6.5,4.5,11.5,6.2,14.9s5.1,9.2,10.2,17.5c5.1,8.2,7.9,12.8,8.4,13.8c36.8,66.4,79,123.4,126.5,170.9
	c47.5,47.5,104.5,89.7,170.9,126.5c1,0.5,5.6,3.3,13.8,8.4c8.2,5.1,14.1,8.5,17.5,10.2s8.4,3.8,14.9,6.2c6.5,2.4,12,3.6,16.4,3.6
	c8.7,0,19.9-6.9,33.5-20.7c13.6-13.8,26.4-28.8,38.5-45.1c12.1-16.2,25.5-31.3,40-45.1c14.5-13.8,26.7-20.7,36.4-20.7
	c6.8,0,13.7,1.7,20.7,5.1c7,3.4,15.6,8.6,25.8,15.6c10.2,7,16.2,11.3,18.2,12.7c12.1,7.3,25.1,14.8,38.9,22.5
	c13.8,7.8,29.2,16.2,46.2,25.5c17,9.2,30.1,16.5,39.3,21.8c33.9,17,52.4,29.8,55.3,38.5C1023.3,796.8,1024,801.9,1024,808.7
	L1024,808.7z"/>
</svg>
