<?xml version="1.0" encoding="utf-8"?>
<!-- Generator: Adobe Illustrator 22.0.1, SVG Export Plug-In . SVG Version: 6.00 Build 0)  -->
<svg version="1.1" id="レイヤー_1" xmlns="http://www.w3.org/2000/svg" xmlns:xlink="http://www.w3.org/1999/xlink" x="0px"
	 y="0px" viewBox="0 0 82.7 431.6" style="enable-background:new 0 0 82.7 431.6;" xml:space="preserve">
<style type="text/css">
	.st0{fill:#BFA17A;}
</style>
<g>
	<path class="st0" d="M28.4,18c-0.5,0-1.1,0.2-1.1,0.9c0,0.3,1.7,6.5,3.3,11.3C37.1,48.3,41.8,49.5,42,49.5
		c2.9,0,10.6-20.6,10.6-29.7c0-0.4,0-1.1,0.7-1.1c0.3,0,8.6,3,8.6,4.3c0,0.4-0.4,0.7-1.4,1.4c-0.9,0.6-1.8,2.9-1.8,3.2
		c-3.3,9.2-5.5,15.5-9.2,22.2c-1.1,2-2.1,4-2.1,4.5c0,2.1,5.5,6.8,14.9,11.3c9.9,4.8,18.1,5.3,19.3,5.3c0.3,0,0.8,0,0.8,0.4
		c0,0.6-0.3,0.7-2.5,1.2c-2,0.5-4.9,1.6-6.2,2.6c-0.5,0.4-2.9,2.7-3.6,2.7c-1.3,0-10.9-4.3-20.5-12.2c-6.2-5-6.2-5-6.8-5
		s-1,0.3-4.3,3.1c-10.7,8.6-24.3,15-35,15c-0.6,0-1-0.2-1-0.4c0-0.4,4.7-1.7,5.5-1.9c17.7-6.7,29.7-18.6,29.7-21.5
		c0-0.8-0.4-1.4-3.3-6.7C29,38.5,26,27.5,25.1,20.1c-0.3-1.8-0.3-2-1.9-2h-4.3c-2.1,0-8.1,0-11.1,0.3c-0.3,0-1.6,0.2-1.9,0.2
		s-0.4-0.2-0.7-0.5l-1.8-2C3,15.7,3,15.7,3,15.5s0.2-0.2,0.4-0.2c0.5,0,3.2,0.3,3.8,0.3c2.6,0.1,7.1,0.4,12.1,0.4h15.6
		c2.6,0,2.6-1.6,2.6-2.8c0-4.4-0.3-8.2-0.4-9.4c0-0.4-0.4-2.5-0.4-3C36.8,0,37,0,37.4,0c0.9,0,5.5,1,6.8,1.2
		c0.5,0.1,2.6,0.5,2.6,1.9c0,0.5-2,2.2-2.2,2.7C44.2,6.7,44,9.2,44,10c0,4.7,0,5.7,2.6,5.7h17.2c2,0,3.6,0,4.2-0.4
		c0.9-0.3,3.9-4.3,5-4.3c0.5,0,8.2,4.7,8.2,5.9c0,1.1-1.8,1.1-4.7,1.1H28.4z"/>
	<path class="st0" d="M24.2,118c-0.6,1.8-1,30-1,36.7c0,1.2,0.3,6.8,0.1,7.9c-0.3,2.3-3,4.8-4.9,4.8s-1.9-2.2-1.9-3.1
		c0-1.7,0.5-9.2,0.6-10.7c0.1-2.3,0.9-21.7,0.9-27.5c0-6.5-0.2-6.8-0.9-6.8c-0.4,0-0.8,0.5-2.5,2.7c-2.6,3.3-9.8,12.8-11.4,12.8
		c-0.2,0-0.5-0.2-0.5-0.5c0-0.4,8.2-13.6,9.6-16.3c8.1-15,11.9-25.9,12.4-28c0.6-2.7,0.6-2.7,1.1-2.7c0.4,0,8.9,3.7,8.9,5.1
		c0,0.6-2.6,2.2-2.9,2.6c-1.7,1.8-2.2,2.7-6.8,10.7c-0.9,1.5-2.8,4.8-2.8,5.9c0,1,0.6,1.5,1.5,1.9c1.2,0.6,1.8,1.1,1.8,2
		C25.6,116,24.3,117.7,24.2,118z M76.8,109.6c-2.3,0.2-3,0.5-5.3,2.2c-9.7,7.3-11.7,8.9-16.8,11.8c-2.4,1.4-6.1,3.5-6.7,5.2
		c-0.4,1.1-0.4,16.5-0.4,19.3c0,12.1,0,12.3,12.2,12.3c11,0,12.2-0.6,13.2-2.2c0.8-1.2,1.1-3.3,1.6-9c0.3-2.8,0.3-3.2,1-3.2
		c0.5,0,0.5,0.1,0.9,3.2c0.5,4.4,1.8,7.3,2.4,8.4c0.3,0.5,2.1,3,2.1,3.7c0,5-11.3,5-16.2,5c-23.1,0-23.1-2.4-23.1-11.9
		c0-8.3,0.5-44.6,0.5-52.2c0-6.7-0.1-8.1-0.4-10.3c-0.1-0.4-0.4-2.7-0.4-3.3c0-0.8,0.3-1.1,0.6-1.1c0.4,0,3.1,1,5,1.7
		c3.2,1.1,3.5,1.2,3.5,2c0,0.3-0.2,0.5-0.4,0.7c-1.2,1.1-1.3,1.2-1.5,2.1c-0.4,1.5-0.7,22.4-0.7,26.6c0,0.8,0,2.6,1.1,2.6
		c2.2,0,14.3-11.8,21.4-20.9c0.3-0.4,1.5-2,1.8-2s7.7,6.4,6.9,8.4C78.8,109.4,77.4,109.6,76.8,109.6z"/>
	<path class="st0" d="M49.9,196.7c0,3.2-1.8,3.4-2.3,3.4c-1,0-1.5-0.1-5-4.7c-2-2.6-11.6-11.3-12.8-11.3c-0.7,0-1.1,0.4-1.8,1
		c-11.4,10.6-24.9,19-26.4,19c-0.2,0-0.4-0.1-0.4-0.3c0-0.1,5.7-5,6.7-6c4-3.9,13.7-13.7,16.9-20.3c1-2,1-2.2,1.5-2.2
		c0.9,0,6.8,3.6,6.8,5.1c0,0.7-0.3,1-1.1,1.5c-0.1,0.1-0.5,0.4-0.5,0.8c0,0.4,3.1,1.9,3.8,2.3c13.2,6.3,14.2,7.7,14.6,10.2
		C49.8,195.7,49.9,196.2,49.9,196.7z M23.9,250.9c-1.8,0-2.4,0.1-2.8,1.1c-0.7,1.6-1.3,2.8-4,2.8c-2.5,0-2.5-1.4-2.5-2.1
		c0-0.6,0.4-3.7,0.4-4.4c0.2-3.1,0.2-7,0.2-8c0-0.8,0-5.2-0.5-5.2c-0.2,0-2.5,5.3-3,6.2c-3.3,5.9-8.9,10.5-9.6,10.5
		c-0.1,0-0.2-0.1-0.2-0.3c0,0,1.1-1.6,1.7-2.5c8.1-12.1,8.1-28.2,8.1-30.3c0-5.7-0.2-10.6-0.9-13.6c-0.1-0.4-0.9-2.5-0.9-2.9
		s0.3-0.4,0.7-0.4c0.5,0,1.8,0.4,4,1.7c2.8,1.8,3.7,1.8,5.6,1.8h14.6c1.3,0,1.9-0.1,2.4-0.4c0.4-0.4,1.8-2.3,2.3-2.3
		c0.4,0,6.8,3.8,6.8,4.8c0,0.6-0.4,1.1-0.7,1.4c-0.3,0.2-1.1,1.1-1.6,1.6c-0.2,1.2,0,12.3,0,14.7c0,2.7-2.6,3.9-4.1,3.9
		c-0.9,0-1.1-0.3-1.9-1.5c-0.4-0.7-0.8-0.7-2.4-0.7H18.7c-1.6,0-2.9,0-2.9,3.6c0,1.3,0.4,1.6,4,3.8c1.2,0.7,3.1,0.7,4,0.7h11.5
		c1.7,0,2.4-0.2,3.3-1.5c0.6-1,1.1-1.6,1.8-1.6c0.2,0,6.4,2.7,6.4,4.6c0,0.4-0.2,0.9-0.5,1.1c-1.5,1.2-1.7,1.4-1.8,1.8
		c-0.3,0.8,0,5.2,0,5.4c0,6.1,0,6.8-0.7,7.8c-0.7,1.1-2.3,2.1-3.8,2.1c-1.3,0-1.4-0.8-1.6-2.1c-0.2-1.6-1.7-1.7-2.7-1.7L23.9,250.9
		L23.9,250.9z M28.7,196c1.6,0,1.8,0,2.1-0.4c0.6-0.4,2.7-3.4,3.3-3.4c0.4,0,5.9,3.7,5.9,5.1c0,1-0.4,1-3.3,1H25.1
		c-1.1,0-4.1,0.2-5.2,0.3c-0.2,0.1-1,0.2-1.1,0.2c-0.3,0-0.4-0.2-0.6-0.5l-1.3-2c-0.3-0.4-0.3-0.4-0.3-0.5c0-0.2,0.1-0.3,0.3-0.3
		c0.8,0,7.6,0.6,9,0.6h2.8V196z M35.6,224.5c2.4,0,2.4-0.5,2.4-5.3c0-1.5-0.2-2.5-2.4-2.5H19.7c-2.1,0-2.9,0.1-2.9,5.8
		c0,1.8,1.1,1.9,2.4,1.9h16.4V224.5z M35.4,214.5c2.6,0,2.6-0.9,2.6-2.7c0-3.7,0-4-2.4-4H19.7c-2.5,0-2.5,0.9-2.5,4.4
		c0,1.8,0.5,2.3,2.5,2.3H35.4z M24.2,237.2c-2.9,0-2.9,0.7-2.9,5.3c0,5.5,0,6.1,2.9,6.1h11.4c3,0,3-0.8,3-7.7c0-2.6,0-3.7-2.9-3.7
		L24.2,237.2L24.2,237.2z M54.6,187.4c0.5,0,6.5,2.6,7,2.8c0.4,0.3,1.1,0.8,1.1,1.4c0,0.5-1.7,2.5-1.8,2.9
		c-0.4,1.1-0.4,1.9-0.4,10.7c0,5,0.1,30.8,0,31.8c-0.2,2.2-3.1,2.9-4.8,2.9c-1.9,0-2.1-1.2-2.1-1.9c0-1.3,0.6-7,0.6-8.2
		c0.3-8.4,0.8-22.1,0.8-29.8c0-1.8-0.1-7.7-0.5-9.1c-0.7-2.2-0.8-2.5-0.7-2.6C53.9,187.6,54.2,187.4,54.6,187.4z M69.4,176.7
		c0.4,0,6.1,2.1,7,2.6c2.2,0.8,2.4,0.9,2.4,1.5s-2.3,2.1-2.6,2.6c-0.3,0.6-0.6,4.2-0.6,4.9c-0.1,2.7-0.1,16.8-0.1,22.8v35.6
		c0,6-4.8,9.1-9.6,9.1c-1.5,0-1.8-0.2-3-2.3c-0.4-0.9-2.7-3.9-4.6-4.9c-1-0.6-1.1-0.7-1.1-1s0.4-0.3,0.5-0.3c0.3,0,7.1,0.6,8.4,0.6
		c1.6,0,2.7-0.4,2.9-2c0.2-1.1,0.5-14.8,0.5-25.7c0-9.8-0.1-30.4-0.4-39.1c0-0.7-0.6-3.6-0.4-4.1C69,176.8,69.2,176.7,69.4,176.7z"
		/>
	<path class="st0" d="M1.5,300.5c-0.4-0.4-0.4-0.4-0.4-0.6s0.2-0.2,0.3-0.2c1.6,0,9.5,0.5,11.3,0.5c1.4,0,1.9-0.3,3-1.1
		c0.4-0.4,3.4-2.7,3.7-2.7c0.7,0,4.4,3.4,4.4,4.7c0,0.2-0.1,0.4-0.4,0.6c-0.3,0.3-1.8,1.1-1.9,1.4c-0.4,0.5-0.4,6.8-0.4,7.9
		c0,12.7,0.9,14.1,3.3,16.9c4.9,5.8,15,6.3,21.8,6.3c17.4,0,25.3-1.1,32-2.3c0.5-0.2,3.3-0.8,4-0.8c0.2,0,0.5,0,0.5,0.4
		c0,0.5-0.9,0.9-1.2,1.1c-1.1,0.4-2.7,2.6-3.3,3.7c-1.3,3.2-1.5,3.5-2.6,3.8c-2.4,0.7-17.3,0.7-21,0.7c-14.1,0-24.6,0-31.2-10.6
		c-2.5-3.9-2.7-4.2-3.3-4.2c-0.5,0-1.1,0.5-1.3,0.8c-0.6,0.7-4.5,6.2-6.7,9.2c-0.5,0.8-1.8,5.8-2.8,5.8c-1.6,0-6.4-6.2-6.4-7.5
		c0-0.4,0.3-0.7,0.9-0.9c0.4-0.1,2.3-0.4,2.6-0.6c9.4-4.7,9.4-5.5,9.4-13.8c0-8.1,0-14.4-0.5-15.5c-0.4-0.7-1.2-1-2.2-1
		c-1.9,0-4.7,0.1-6.6,0.2c-0.3,0-2.4,0.3-2.6,0.3c-0.4,0-0.4-0.2-0.8-0.5L1.5,300.5z M18.9,285.9c-1.2,0-1.5-0.5-4.3-5.2
		c-2.7-4.5-8.1-9-8.8-9.7c-0.2-0.2-2.1-1.8-2.1-1.9c0-0.3,0.5-0.3,0.6-0.3c0.6,0,17.2,3,17.2,13.4C21.6,284.3,20.2,285.9,18.9,285.9
		z M36.9,279.8c-2.3,0-2.6,0.4-4.6,3.1c-1,1.4-4.3,5.9-5.4,5.9c-0.3,0-0.3-0.3-0.3-0.4c0-0.4,0.3-0.8,0.4-0.9c2-4,4.7-11.8,5.2-16.4
		c0.4-3.7,0.4-4.1,1.4-4.1c0.3,0,7,2.1,7,3.7c0,0.4-1.8,1.8-2,2.2c-0.7,0.8-2,3.3-2,3.8c0,0.8,0.6,0.8,1.4,0.8h6.9
		c2.6,0,2.6-1.8,2.6-2.7c0-1.3-0.1-5.6-0.2-6.8c-0.1-0.5-0.8-3.5-0.8-4.1c0-0.8,0.4-1.1,1.1-1.1c0.4,0,8.4,1.5,8.4,3.1
		c0,0.5-2.1,2.3-2.2,2.9c-0.5,1.9-0.5,5.1-0.5,5.8c0,1.7,0,3,2.7,3c4.7,0,5.2,0,6.4-1.6c2.1-2.7,2.4-3.1,3.3-3.1
		c1.1,0,6.1,4.5,6.1,5.7s-1.9,1.2-4.6,1.2H55.6c-2.3,0-2.6,0.8-2.6,5c0,8.9,0.2,8.9,2.7,8.9h7.2c4,0,4.5,0,5.7-1.9
		c1.3-2.1,2.3-3.4,3.3-3.4c1.1,0,7.2,5.1,7.2,6.6c0,1.1-1.8,1.1-4.7,1.1H39c-2.1,0-8.1,0-11.1,0.2c-0.3,0.1-1.6,0.3-1.9,0.3
		s-0.4-0.2-0.7-0.6l-1.8-2c-0.4-0.4-0.4-0.4-0.4-0.5c0-0.2,0.2-0.3,0.4-0.3c0.5,0,3.2,0.4,3.8,0.4c2.6,0.1,7.1,0.3,12.1,0.3h5.5
		c2.6,0,2.6-0.7,2.6-8.3c0-4.8-0.2-5.6-2.8-5.6h-7.8V279.8z M56.2,306.4c4,0,4.4,0,5.6-1.5c0.6-0.8,1.3-1.5,2.2-1.5
		c1.1,0,6.2,3.2,6.2,4.8c0,0.5-0.4,1.1-1.6,1.8c-1.3,1-1.3,1.3-1.3,4.6c0,1.4,0.4,8.6,0.4,10.3c0,4.6-3.6,4.6-4,4.6
		c-2.1,0-2.2-1.1-2.3-2.4c-0.1-0.9-0.4-1.7-2.3-1.7H41.4c-0.8,0-1.4,0-1.8,1.1c-0.4,1.3-1.1,3.5-3.9,3.5c-1,0-3-0.4-3-3.3
		c0-1.8,0.3-11.1,0.3-13.2c0-1.2,0-4.8-0.2-7.3c0-0.3-0.2-1.6-0.2-1.9c0-0.6,0.3-1,0.8-1c0.7,0,2.9,0.9,3.4,1.1
		c2.9,1.5,3.6,1.8,5.7,1.8h13.7V306.4z M41.7,308.7c-0.7,0-1.9,0-2.4,1.1c-0.3,0.5-0.3,4.7-0.3,7c0,5.8,0,6.5,2.4,6.5h17.8
		c2.5,0,2.6-0.4,2.6-8.4c0-5.5,0-6.1-2.8-6.1H41.7V308.7z"/>
	<path class="st0" d="M1.5,372.3c-0.4-0.4-0.4-0.5-0.4-0.6c0-0.2,0.3-0.2,0.4-0.2c1.7,0,9.8,0.5,11.6,0.5c2.5,0,2.5-0.6,2.5-6.5
		c0-1.3-0.1-6.5-0.4-9.9c0-0.4-0.4-2.5-0.4-3c0-0.2,0.3-0.2,0.4-0.2c0.7,0,7.2,2,7.9,2.4c0.4,0.3,1,0.6,1,1.2c0,0.4-1.6,1.7-1.8,2
		c-0.4,0.8-0.4,1.2-0.4,4.9v7.4c0,1.2,0.5,1.4,1.4,1.4c0.8,0,1.4-0.1,2.1-0.6c0.6-0.4,3.2-3,4-3c0.5,0,1.1,0.4,1.2,0.6
		c1.1,1.1,2.9,3.3,3.2,3.4c1.9,1.8,2.1,2,2.1,2.6s-0.5,1-1,1.1c-0.3,0.1-1.5,0.4-1.8,0.4c-1.2,0.5-6.9,7.5-8.2,8.8
		c-2.6,2.6-2.8,2.9-2.8,4.5c0,1.8,0.8,2,2.9,2.5c3,0.7,11.3,3.1,11.3,9.8c0,2.7-1.5,4-3.1,4c-2.1,0-3.1-1.8-5.4-6.4
		c-0.5-1-3.4-5.5-5.1-5.5c-0.8,0-0.8,1.2-0.8,2.3c0,3.3,0.1,19.6,0.1,23.2c0,1.1,0.4,6.6,0.4,7.8c0,2.6-2.2,4-4.7,4
		c-2.1,0-2.6-0.9-2.6-2.1c0-0.9,0.4-4.9,0.4-5.9c0.2-6.5,0.5-15.7,0.5-26c0-1,0-2.5-0.9-2.5S2.7,405,0.4,405c-0.2,0-0.4,0-0.4-0.3
		c0-0.7,6.5-6.6,7.7-7.8c3.5-3.6,15.9-19,15.9-21.6c0-0.8-0.6-0.9-1.4-0.9H16c-3.4,0-7.1,0.1-10.2,0.3c-0.3,0-1.6,0.2-1.8,0.2
		c-0.4,0-0.5-0.2-0.8-0.5L1.5,372.3z M30.3,426.2c-0.4-0.4-0.4-0.4-0.4-0.5c0-0.2,0.2-0.3,0.3-0.3c0.5,0,3.3,0.4,3.9,0.4
		c2.6,0.1,7.1,0.3,12.1,0.3h3.4c0.8,0,2.4,0,2.6-1.9c0.2-1.6,0.4-35.5,0.4-40c0-0.9,0-2.7-2.1-2.7c-2.2,0-7.3,0-10.4,0.3
		c-0.3,0-1.5,0.2-1.8,0.2s-0.4-0.2-0.8-0.5l-1.7-2c-0.4-0.4-0.4-0.4-0.4-0.6s0.2-0.2,0.3-0.2s3.3,0.3,3.7,0.3c0.9,0,8,0.4,11,0.4
		c2.1,0,2.3-1.1,2.3-3.6c0-8.1-0.2-12.1-0.6-18.7c0-0.7-0.5-3.8-0.5-4.5c0-0.4,0.2-0.6,0.7-0.6c0.3,0,5.7,1.7,6.3,1.8
		c0.8,0.3,2.6,0.7,2.6,2.2c0,0.4-1.8,1.9-1.9,2.4c-0.5,1.2-0.8,15.8-0.8,18.2c0,1.1,0,2.7,2.1,2.7c4.1,0,4.6,0,6.4-2.5
		c2.6-3.4,2.8-3.8,3.6-3.8c1.2,0,7.4,5.7,7.4,7.4c0,1.1-1.8,1.1-4.7,1.1H61c-2.4,0-2.6,1.3-2.6,2.9c0,5.3,0.3,31.1,0.3,37
		c0,3.3,0,4.8,2.3,4.8h3.3c1.6,0,3.2,0,5.2-2.6c2.4-3.1,2.6-3.4,3.7-3.4c0.8,0,8.5,5.7,8.5,7.2c0,1.2-1.8,1.2-4.8,1.2H45.7
		c-2.1,0-8-0.1-11.1,0.2c-0.3,0-1.6,0.3-1.8,0.3c-0.3,0-0.4-0.2-0.8-0.6L30.3,426.2z"/>
</g>
</svg>
